<svg width="24" height="25" viewBox="0 0 24 25" fill="none" xmlns="http://www.w3.org/2000/svg">
<path d="M21 16.4999V8.4999C20.9996 8.14918 20.9071 7.80471 20.7315 7.50106C20.556 7.19742 20.3037 6.94526 20 6.7699L13 2.7699C12.696 2.59437 12.3511 2.50195 12 2.50195C11.6489 2.50195 11.304 2.59437 11 2.7699L4 6.7699C3.69626 6.94526 3.44398 7.19742 3.26846 7.50106C3.09294 7.80471 3.00036 8.14918 3 8.4999V16.4999C3.00036 16.8506 3.09294 17.1951 3.26846 17.4987C3.44398 17.8024 3.69626 18.0545 4 18.2299L11 22.2299C11.304 22.4054 11.6489 22.4979 12 22.4979C12.3511 22.4979 12.696 22.4054 13 22.2299L20 18.2299C20.3037 18.0545 20.556 17.8024 20.7315 17.4987C20.9071 17.1951 20.9996 16.8506 21 16.4999Z" fill="#266EF1" stroke="#266EF1" stroke-width="1.5" stroke-linecap="round" stroke-linejoin="round"/>
<path d="M3.27002 7.45996L12 12.51L20.73 7.45996" stroke="white" stroke-width="1.5" stroke-linecap="round" stroke-linejoin="round"/>
<path d="M12 22.58V12.5" stroke="white" stroke-width="1.5" stroke-linecap="round" stroke-linejoin="round"/>
</svg>
