<svg width="20" height="20" viewBox="0 0 20 20" fill="none" xmlns="http://www.w3.org/2000/svg">
<path fill-rule="evenodd" clip-rule="evenodd" d="M8.44018 14.7722L8.07356 13.3058C5.13117 13.6809 3 14.783 3 16.0843C3 17.6947 6.26355 19.0001 10.2893 19.0001C14.3151 19.0001 17.5787 17.6947 17.5787 16.0843C17.5787 14.7778 15.4303 13.672 12.4696 13.3013L12.2228 14.7822C13.2747 14.9095 14.1863 15.1352 14.8866 15.4153C15.4416 15.6373 15.79 15.8641 15.9752 16.0392C15.9926 16.0557 16.0076 16.0707 16.0206 16.0843C16.0076 16.0979 15.9926 16.113 15.9752 16.1294C15.79 16.3046 15.4416 16.5314 14.8866 16.7534C13.785 17.194 12.1603 17.5001 10.2893 17.5001C8.41842 17.5001 6.7937 17.194 5.69208 16.7534C5.13712 16.5314 4.78867 16.3046 4.60349 16.1294C4.58608 16.113 4.57106 16.0979 4.55812 16.0843C4.57106 16.0707 4.58608 16.0557 4.60349 16.0392C4.78867 15.8641 5.13712 15.6373 5.69208 15.4153C6.41099 15.1278 7.35267 14.8975 8.44018 14.7722ZM16.0955 15.9877C16.0957 15.9877 16.0948 15.9901 16.092 15.995C16.0939 15.9901 16.0953 15.9877 16.0955 15.9877ZM4.48319 15.9877C4.48341 15.9877 4.48478 15.9901 4.48665 15.995C4.48391 15.9901 4.48297 15.9877 4.48319 15.9877ZM4.48319 16.181C4.48297 16.181 4.48391 16.1785 4.48665 16.1737C4.48478 16.1785 4.48341 16.181 4.48319 16.181ZM16.092 16.1737C16.0948 16.1785 16.0957 16.181 16.0955 16.181C16.0953 16.181 16.0939 16.1785 16.092 16.1737Z" fill="#ACBBD7"/>
<rect x="9.57312" y="7.65723" width="1.64115" height="8.42697" rx="0.820577" fill="#ACBBD7"/>
<circle cx="10.3737" cy="5.00281" r="4.00281" fill="#ACBBD7"/>
</svg>
