<svg width="21" height="20" viewBox="0 0 21 20" fill="none" xmlns="http://www.w3.org/2000/svg">
<path d="M16.3333 2.5H4.66667C3.74619 2.5 3 3.24619 3 4.16667V15.8333C3 16.7538 3.74619 17.5 4.66667 17.5H16.3333C17.2538 17.5 18 16.7538 18 15.8333V4.16667C18 3.24619 17.2538 2.5 16.3333 2.5Z" stroke="#266EF1" stroke-width="1.5" stroke-linecap="round" stroke-linejoin="round"/>
<path d="M7.58325 8.3335C8.27361 8.3335 8.83325 7.77385 8.83325 7.0835C8.83325 6.39314 8.27361 5.8335 7.58325 5.8335C6.8929 5.8335 6.33325 6.39314 6.33325 7.0835C6.33325 7.77385 6.8929 8.3335 7.58325 8.3335Z" stroke="#266EF1" stroke-width="1.5" stroke-linecap="round" stroke-linejoin="round"/>
<path d="M18.0001 12.5002L13.8334 8.3335L4.66675 17.5002" stroke="#266EF1" stroke-width="1.5" stroke-linecap="round" stroke-linejoin="round"/>
</svg>
