<svg width="289" height="219" viewBox="0 0 289 219" fill="none" xmlns="http://www.w3.org/2000/svg">
<path d="M53.26 180.14C54.86 180.171 56.2875 180.673 57.5425 181.646C58.7975 182.619 59.8014 183.779 60.5544 185.128C61.3387 186.478 61.9192 187.905 62.2956 189.411C62.6721 190.917 62.8604 192.454 62.8604 194.023C62.8604 196.094 62.5309 198.133 61.8721 200.141C61.2446 202.117 60.1936 203.874 58.719 205.412C57.2758 206.949 55.4561 207.78 53.26 207.906H38.3417C36.1455 207.812 34.3101 206.996 32.8355 205.459C31.361 203.921 30.3099 202.149 29.6825 200.141C29.0864 198.133 28.7883 196.094 28.7883 194.023C28.7883 191.952 29.1021 189.929 29.7295 187.952C30.357 185.944 31.3923 184.172 32.8355 182.634C34.3101 181.066 36.1455 180.234 38.3417 180.14H39.2358H52.3658H53.26ZM51.6599 201.6C52.8521 201.537 53.8404 201.098 54.6247 200.282C55.4404 199.435 56.0209 198.462 56.366 197.364C56.7111 196.266 56.8836 195.152 56.8836 194.023C56.8836 192.893 56.6954 191.795 56.3189 190.729C55.9738 189.631 55.4091 188.658 54.6247 187.811C53.8404 186.964 52.8521 186.509 51.6599 186.446H39.8006C38.6083 186.509 37.6201 186.964 36.8357 187.811C36.0514 188.658 35.471 189.631 35.0945 190.729C34.7494 191.795 34.5768 192.893 34.5768 194.023C34.5768 195.152 34.7494 196.266 35.0945 197.364C35.4396 198.462 36.0043 199.435 36.7887 200.282C37.6044 201.098 38.6083 201.537 39.8006 201.6H51.6599ZM76.6492 180.14H95.0971C95.9755 180.171 96.6971 180.501 97.2619 181.128C97.858 181.756 98.156 182.509 98.156 183.387C97.9991 185.27 96.9795 186.289 95.0971 186.446H78.2493C77.0571 186.509 76.0688 186.964 75.2844 187.811C74.5001 188.658 73.9197 189.631 73.5432 190.729C73.1981 191.795 73.0255 192.893 73.0255 194.023C73.0255 195.152 73.1981 196.25 73.5432 197.317C73.9197 198.353 74.5001 199.294 75.2844 200.141C76.0688 200.988 77.0571 201.443 78.2493 201.506H90.7675C91.3636 201.537 91.8499 201.427 92.2263 201.176C92.6342 200.925 92.9323 200.643 93.1205 200.329C93.3087 199.984 93.4029 199.639 93.4029 199.294C93.4029 199.074 93.3087 198.776 93.1205 198.4C92.9323 197.992 92.6342 197.662 92.2263 197.411C91.8499 197.16 91.3636 197.019 90.7675 196.988H78.7199C77.8414 196.988 77.0884 196.69 76.461 196.094C75.8649 195.466 75.5668 194.713 75.5668 193.835C75.5668 192.956 75.8649 192.203 76.461 191.576C77.0884 190.98 77.8414 190.682 78.7199 190.682H90.4851C92.6813 190.744 94.4853 191.262 95.8971 192.235C97.3403 193.176 98.3599 194.274 98.9561 195.529C99.5835 196.752 99.8973 198.007 99.8973 199.294C99.8973 200.549 99.5835 201.804 98.9561 203.059C98.3286 204.282 97.3089 205.38 95.8971 206.353C94.4853 207.294 92.6813 207.765 90.4851 207.765H90.2027C90.0145 207.796 89.8262 207.812 89.638 207.812H76.6492C74.453 207.686 72.6333 206.855 71.1901 205.318C69.7783 203.749 68.7587 201.992 68.1312 200.047C67.5351 198.102 67.237 196.094 67.237 194.023C67.237 191.952 67.5508 189.929 68.1782 187.952C68.8057 185.976 69.8254 184.219 71.2372 182.681C72.649 181.113 74.453 180.265 76.6492 180.14Z" fill="#266EF1"/>
<path d="M114.816 207.906C112.055 207.812 109.968 207.169 108.556 205.976C107.145 204.753 106.125 203.388 105.498 201.882C104.87 200.345 104.556 198.792 104.556 197.223C104.556 195.592 104.854 194.023 105.45 192.517C106.078 190.98 107.098 189.615 108.509 188.423C109.953 187.199 111.772 186.572 113.968 186.54H131.852C132.73 186.54 133.467 186.854 134.063 187.481C134.691 188.078 135.005 188.815 135.005 189.693C135.005 190.572 134.691 191.325 134.063 191.952C133.467 192.548 132.73 192.846 131.852 192.846H113.78C113.184 192.846 112.666 193.097 112.227 193.599C111.788 194.07 111.459 194.635 111.239 195.294C111.051 195.921 110.957 196.549 110.957 197.176C110.957 197.835 111.051 198.494 111.239 199.153C111.459 199.78 111.788 200.345 112.227 200.847C112.666 201.317 113.184 201.568 113.78 201.6H131.852C132.73 201.6 133.467 201.913 134.063 202.541C134.691 203.137 135.005 203.874 135.005 204.753C135.005 205.631 134.691 206.369 134.063 206.965C133.467 207.592 132.73 207.906 131.852 207.906H114.816ZM166.253 205.412V194.07C166.253 193.286 165.845 192.878 165.029 192.846H148.558C147.962 192.878 147.444 193.144 147.005 193.646C146.566 194.117 146.237 194.682 146.017 195.341C145.829 195.968 145.735 196.611 145.735 197.27C145.735 197.898 145.829 198.541 146.017 199.2C146.237 199.827 146.566 200.392 147.005 200.894C147.444 201.364 147.962 201.6 148.558 201.6H160.606C161.484 201.6 162.222 201.913 162.818 202.541C163.445 203.137 163.759 203.874 163.759 204.753C163.759 205.631 163.445 206.369 162.818 206.965C162.222 207.592 161.484 207.906 160.606 207.906H148.746C146.55 207.875 144.731 207.263 143.287 206.071C141.876 204.847 140.856 203.482 140.228 201.976C139.632 200.439 139.334 198.855 139.334 197.223C139.334 195.654 139.648 194.117 140.275 192.611C140.903 191.074 141.923 189.709 143.334 188.517C144.746 187.293 146.833 186.634 149.594 186.54H169.359C170.238 186.54 170.991 186.838 171.618 187.434C172.245 187.999 172.575 188.721 172.606 189.599V205.412C172.606 206.29 172.277 207.027 171.618 207.624C170.991 208.188 170.238 208.471 169.359 208.471C167.477 208.314 166.441 207.294 166.253 205.412ZM179.665 192.47C180.262 190.964 181.265 189.615 182.677 188.423C184.121 187.199 185.94 186.572 188.136 186.54H205.831C206.71 186.54 207.447 186.854 208.043 187.481C208.671 188.078 208.984 188.815 208.984 189.693C208.984 190.572 208.671 191.325 208.043 191.952C207.447 192.548 206.71 192.846 205.831 192.846H187.948C187.352 192.846 186.834 193.097 186.395 193.599C185.956 194.07 185.611 194.635 185.36 195.294C185.14 195.952 185.03 196.58 185.03 197.176V205.412C184.842 207.294 183.807 208.314 181.924 208.471C181.046 208.471 180.277 208.188 179.618 207.624C178.991 207.027 178.677 206.29 178.677 205.412V197.223H178.724C178.724 195.592 179.038 194.007 179.665 192.47ZM240.045 194.07C240.045 193.286 239.637 192.878 238.821 192.846H222.35C221.754 192.878 221.236 193.144 220.797 193.646C220.357 194.117 220.028 194.682 219.808 195.341C219.62 195.968 219.526 196.611 219.526 197.27C219.526 197.898 219.62 198.541 219.808 199.2C220.028 199.827 220.357 200.392 220.797 200.894C221.236 201.364 221.754 201.6 222.35 201.6H234.397C235.276 201.6 236.013 201.913 236.609 202.541C237.237 203.137 237.55 203.874 237.55 204.753C237.55 205.631 237.237 206.369 236.609 206.965C236.013 207.592 235.276 207.906 234.397 207.906H222.538C220.342 207.875 218.522 207.263 217.079 206.071C215.667 204.847 214.647 203.482 214.02 201.976C213.424 200.439 213.126 198.855 213.126 197.223C213.126 195.654 213.439 194.117 214.067 192.611C214.694 191.074 215.714 189.709 217.126 188.517C218.538 187.293 220.624 186.634 223.385 186.54H243.151C244.029 186.54 244.782 186.838 245.409 187.434C246.037 187.999 246.366 188.721 246.398 189.599V204.47C246.398 206.98 246.053 209.349 245.362 211.577C244.735 213.553 243.7 215.216 242.256 216.565C240.845 217.946 239.041 218.699 236.844 218.824H220.561C219.714 218.793 218.993 218.479 218.397 217.883C217.832 217.318 217.534 216.612 217.502 215.765C217.502 214.887 217.785 214.134 218.349 213.506C218.946 212.879 219.683 212.549 220.561 212.518H235.244C236.437 212.455 237.425 212 238.209 211.153C238.993 210.306 239.495 209.318 239.715 208.188C239.935 207.059 240.045 205.6 240.045 203.812V194.07ZM262.493 207.906C259.732 207.812 257.645 207.169 256.233 205.976C254.822 204.753 253.802 203.388 253.174 201.882C252.547 200.345 252.233 198.792 252.233 197.223C252.233 195.592 252.531 194.023 253.127 192.517C253.755 190.98 254.775 189.615 256.186 188.423C257.63 187.199 259.449 186.572 261.645 186.54H276.893C279.089 186.572 280.893 187.199 282.305 188.423C283.748 189.615 284.768 190.98 285.364 192.517C285.992 194.023 286.305 195.592 286.305 197.223C286.305 198.792 285.992 200.345 285.364 201.882C284.737 203.388 283.717 204.753 282.305 205.976C280.893 207.169 278.807 207.812 276.046 207.906H262.493ZM261.457 192.846C260.861 192.846 260.343 193.097 259.904 193.599C259.465 194.07 259.136 194.635 258.916 195.294C258.728 195.921 258.634 196.549 258.634 197.176C258.634 197.835 258.728 198.494 258.916 199.153C259.136 199.78 259.465 200.345 259.904 200.847C260.343 201.317 260.861 201.568 261.457 201.6H277.081C277.678 201.568 278.195 201.317 278.634 200.847C279.074 200.345 279.387 199.78 279.576 199.153C279.795 198.494 279.905 197.835 279.905 197.176C279.905 196.549 279.795 195.921 279.576 195.294C279.387 194.635 279.074 194.07 278.634 193.599C278.195 193.097 277.678 192.846 277.081 192.846H261.457Z" fill="#000A1D"/>
<path d="M6.63558 191.952C6.10222 191.262 5.88261 190.493 5.97673 189.646C6.10222 188.799 6.51009 188.093 7.20031 187.529L16.4713 180.328C17.1615 179.701 17.9459 179.387 18.8243 179.387C19.6714 179.418 20.393 179.732 20.9891 180.328C21.5852 180.893 21.899 181.599 21.9304 182.446V205.506C21.7421 207.388 20.7068 208.408 18.8243 208.565C17.9459 208.565 17.1772 208.282 16.5184 207.718C15.8909 207.122 15.5771 206.384 15.5771 205.506V189.034L11.0593 192.517C10.3691 193.05 9.60042 193.254 8.75332 193.129C7.87485 193.035 7.16894 192.642 6.63558 191.952Z" fill="#266EF1"/>
<path d="M173.252 31.6458C173.252 53.148 145.606 71.5786 145.606 71.5786C145.606 71.5786 117.96 53.148 117.96 31.6458C117.96 24.3137 120.873 17.2818 126.057 12.0973C131.242 6.91267 138.274 4 145.606 4C152.938 4 159.97 6.91267 165.154 12.0973C170.339 17.2818 173.252 24.3137 173.252 31.6458Z" stroke="#266EF1" stroke-width="7.37221" stroke-linecap="round" stroke-linejoin="round"/>
<path d="M145.606 40.4453C150.006 40.4453 153.572 36.8786 153.572 32.4788C153.572 28.079 150.006 24.5122 145.606 24.5122C141.206 24.5122 137.639 28.079 137.639 32.4788C137.639 36.8786 141.206 40.4453 145.606 40.4453Z" stroke="#266EF1" stroke-width="6.37325" stroke-linecap="round" stroke-linejoin="round"/>
<path d="M196.688 91.3077C196.688 96.2118 196.688 107.683 196.688 114.335C196.688 122.079 197.524 121.079 192.211 124.57L150.633 148.877C149.675 149.425 147.732 150.113 145.516 149.994M196.688 91.3077L209.481 82.3525C214.024 79.5786 214.454 78.0786 209.481 75.3162C206.873 73.8673 199.63 69.4784 192.211 64.9371M196.688 91.3077C190.505 95.3589 176.925 103.251 173.661 105.38C169.524 108.079 169.024 106.579 164.705 104.741L145.516 93.8663M192.211 64.9371C186.528 61.4589 180.743 57.8913 176.859 55.4868L192.211 64.9371ZM192.211 64.9371L145.516 93.8663M145.516 93.8663L98.8205 64.9371L115.452 55.4868L81.5497 75.3162C76.5244 78.5786 74.5244 79.0786 81.5497 82.9921C84.0209 84.3687 89.0897 87.4628 94.9825 90.7661M145.516 93.8663C140.825 96.6382 130.892 103.063 127.605 104.741C123.024 107.079 122.826 106.079 118.01 103.461C112.36 100.391 102.989 95.2542 94.9825 90.7661M145.516 93.8663V149.994M94.9825 90.7661C94.9825 96.9168 94.9825 110.37 94.9825 114.975C94.9825 122.579 94.9825 121.691 98.8205 123.93C111.614 131.393 138.096 146.83 141.678 148.877C142.96 149.61 144.28 149.927 145.516 149.994" stroke="#000A1D" stroke-width="5.11727" stroke-linecap="round" stroke-linejoin="round"/>
<path d="M126.326 105.38L145.516 94.5059V150.156C138.266 146.105 120.697 136.34 108.415 129.687C96.1339 123.035 94.3428 118.387 94.9825 116.894V90.668C100.953 94.0795 113.916 101.542 118.01 104.101C122.104 106.659 125.26 106.02 126.326 105.38Z" fill="#000A1D"/>
</svg>
