<svg width="142" height="153" viewBox="0 0 142 153" fill="none" xmlns="http://www.w3.org/2000/svg">
<path d="M99.2515 31.6458C99.2515 53.148 71.6057 71.5786 71.6057 71.5786C71.6057 71.5786 43.96 53.148 43.96 31.6458C43.96 24.3137 46.8726 17.2818 52.0572 12.0973C57.2418 6.91267 64.2736 4 71.6057 4C78.9379 4 85.9697 6.91267 91.1543 12.0973C96.3388 17.2818 99.2515 24.3137 99.2515 31.6458Z" stroke="#266EF1" stroke-width="7.37221" stroke-linecap="round" stroke-linejoin="round"/>
<path d="M71.6058 40.4453C76.0056 40.4453 79.5724 36.8786 79.5724 32.4788C79.5724 28.079 76.0056 24.5122 71.6058 24.5122C67.206 24.5122 63.6393 28.079 63.6393 32.4788C63.6393 36.8786 67.206 40.4453 71.6058 40.4453Z" stroke="#266EF1" stroke-width="6.37325" stroke-linecap="round" stroke-linejoin="round"/>
<path d="M122.688 91.3077C122.688 96.2118 122.688 107.683 122.688 114.335C122.688 122.079 123.524 121.079 118.211 124.57L76.6328 148.877C75.6745 149.425 73.7317 150.113 71.5156 149.994M122.688 91.3077L135.481 82.3525C140.024 79.5786 140.454 78.0786 135.481 75.3162C132.873 73.8673 125.63 69.4784 118.211 64.9371M122.688 91.3077C116.505 95.3589 102.925 103.251 99.6605 105.38C95.5244 108.079 95.0244 106.579 90.7053 104.741L71.5156 93.8663M118.211 64.9371C112.528 61.4589 106.743 57.8913 102.859 55.4868L118.211 64.9371ZM118.211 64.9371L71.5156 93.8663M71.5156 93.8663L24.8205 64.9371L41.4516 55.4868L7.54969 75.3162C2.52435 78.5786 0.524378 79.0786 7.54969 82.9921C10.0209 84.3687 15.0897 87.4628 20.9825 90.7661M71.5156 93.8663C66.8247 96.6382 56.8919 103.063 53.6051 104.741C49.0244 107.079 48.8263 106.079 44.0102 103.461C38.3604 100.391 28.9891 95.2542 20.9825 90.7661M71.5156 93.8663V149.994M20.9825 90.7661C20.9825 96.9168 20.9825 110.37 20.9825 114.975C20.9825 122.579 20.9825 121.691 24.8205 123.93C37.6136 131.393 64.0955 146.83 67.6776 148.877C68.9597 149.61 70.2801 149.927 71.5156 149.994" stroke="#000A1D" stroke-width="5.11727" stroke-linecap="round" stroke-linejoin="round"/>
<path d="M52.3258 105.38L71.5155 94.5059V150.156C64.2661 146.105 46.6968 136.34 34.4153 129.687C22.1339 123.035 20.3428 118.387 20.9825 116.894V90.668C26.9526 94.0795 39.9164 101.542 44.0102 104.101C48.104 106.659 51.2597 106.02 52.3258 105.38Z" fill="#000A1D"/>
</svg>
