<svg width="19" height="23" viewBox="0 0 19 23" fill="none" xmlns="http://www.w3.org/2000/svg">
<path d="M9.65997 10.3697C9.55997 10.3597 9.43997 10.3597 9.32997 10.3697C8.18217 10.3308 7.09461 9.84658 6.2976 9.0197C5.50059 8.19283 5.05671 7.0882 5.05997 5.93974C5.05997 3.48974 7.03997 1.49974 9.49997 1.49974C10.0824 1.48924 10.6612 1.59355 11.2033 1.80672C11.7454 2.0199 12.2402 2.33776 12.6594 2.74216C13.0787 3.14656 13.4142 3.62957 13.6468 4.16363C13.8793 4.69769 14.0045 5.27233 14.015 5.85474C14.0255 6.43716 13.9212 7.01594 13.708 7.55804C13.4948 8.10013 13.177 8.59494 12.7726 9.01419C12.3682 9.43345 11.8851 9.76895 11.3511 10.0015C10.817 10.2341 10.2424 10.3592 9.65997 10.3697ZM3.31916 14.4995C0.899158 16.1195 0.899158 18.3895 3.31916 19.9995C6.06916 21.8395 13.25 21.8395 16 19.9995C18.42 18.3795 18.42 16.1095 16 14.4995C13.26 12.6695 6.07916 12.6695 3.31916 14.4995Z" stroke="#BDBDBD" stroke-width="1.5" stroke-linecap="round" stroke-linejoin="round"/>
</svg>
